# AST/ASF file generated using VICON BodyLanguage
# -----------------------------------------------
:version 1.10
:name VICON
:units
  mass 1.0
  length 0.45
  angle deg
:documentation
   .ast/.asf automatically generated from VICON data using
   VICON BodyBuilder and BodyLanguage model FoxedUp or BRILLIANT.MOD
:root
   order TX TY TZ RX RY RZ
   axis XYZ
   position 0 0 0  
   orientation 0 0 0 
:bonedata
  begin
     id 1 
     name lhipjoint
     direction 0.611804 -0.747784 0.257906 
     length 2.29243 
     axis 0 0 0  XYZ
  end
  begin
     id 2 
     name lfemur
     direction 0.34202 -0.939693 0  
     length 7.31159  
     axis 0 0 20  XYZ
    dof rx ry rz
    limits (-160.0 20.0)
           (-70.0 70.0)
           (-60.0 70.0)
  end
  begin
     id 3 
     name ltibia
     direction 0.34202 -0.939693 0   
     length 7.33391   
     axis 0 0 20   XYZ
    dof rx
    limits (-10.0 170.0)
  end
  begin
     id 4 
     name lfoot
     direction 0.122263 -0.335914 0.933924   
     length 1.76083   
     axis -90 7.62852e-016 20   XYZ
    dof rx rz
    limits (-45.0 90.0)
           (-70.0 20.0)
  end
  begin
     id 5 
     name ltoes
     direction 1.53533e-011 -4.2177e-011 1   
     length 0.879206   
     axis -90 7.62852e-016 20   XYZ
    dof rx
    limits (-90.0 20.0)
  end
  begin
     id 6 
     name rhipjoint
     direction -0.646469 -0.721248 0.248754   
     length 2.37677  
     axis 0 0 0  XYZ 
  end
  begin
     id 7 
     name rfemur
     direction -0.34202 -0.939693 0   
     length 7.18623   
     axis 0 0 -20   XYZ
    dof rx ry rz
    limits (-160.0 20.0)
           (-70.0 70.0)
           (-70.0 60.0)
  end
  begin
     id 8 
     name rtibia
     direction -0.34202 -0.939693 0   
     length 7.36567   
     axis 0 0 -20   XYZ
    dof rx
    limits (-10.0 170.0)
 end
 begin
     id 9 
     name rfoot
     direction -0.126681 -0.348054 0.928876   
     length 1.71902  
     axis -90 -7.62852e-016 -20   XYZ
    dof rx rz
    limits (-45.0 90.0)
           (-20.0 70.0)
  end
  begin
     id 10 
     name rtoes
     direction -1.53551e-011 -4.21898e-011 1   
     length 0.857792   
     axis -90 -7.62852e-016 -20   XYZ
    dof rx
    limits (-90.0 20.0)
  end
  begin
     id 11 
     name lowerback
     direction 0.0106509 0.999778 0.0181844   
     length 2.07668   
     axis 0 0 0   XYZ
    dof rx ry rz
    limits (-20.0 45.0)
           (-30.0 30.0)
           (-30.0 30.0)
  end
  begin
     id 12 
     name upperback
     direction -0.00456018 0.999989 -0.000590935   
     length 2.08011   
     axis 0 0 0   XYZ
    dof rx ry rz
    limits (-20.0 45.0)
           (-30.0 30.0)
           (-30.0 30.0)
  end
  begin
     id 13 
     name thorax
     direction -0.00910382 0.999916 -0.00923765   
     length 2.07397   
     axis 0 0 0   XYZ
    dof rx ry rz
    limits (-20.0 45.0)
           (-30.0 30.0)
           (-30.0 30.0)
  end
  begin
     id 14 
     name lowerneck
     direction 0.00171967 0.99778 0.0665733   
     length 1.67556   
     axis 0 0 0   XYZ
    dof rx ry rz
    limits (-20.0 45.0)
           (-30.0 30.0)
           (-30.0 30.0)
  end
  begin
     id 15 
     name upperneck
     direction -0.0143166 0.991302 -0.130828   
     length 1.68462   
     axis 0 0 0   XYZ
    dof rx ry rz
    limits (-20.0 45.0)
           (-30.0 30.0)
           (-30.0 30.0)
  end
  begin
     id 16
     name head
     direction -0.00606378 0.998665 -0.0512995  
     length 1.69269  
     axis 0 0 0   XYZ
    dof rx ry rz
    limits (-20.0 45.0)
           (-30.0 30.0)
           (-30.0 30.0)
  end
  begin
     id 17 
     name lclavicle
     direction 0.9638 0.179341 0.197297  
     length 4.12888  
     axis 0 0 0   XYZ
    dof ry rz
    limits (-20.0 10.0)
           (0.0 20.0)
  end
  begin
     id 18 
     name lhumerus
     direction 1 -4.48972e-011 -2.47351e-027   
     length 5.01834   
     axis -180 -30 -90   XYZ
    dof rx ry rz
    limits (-60.0 90.0)
           (-90.0 90.0)
           (-90.0 90.0)
  end
  begin
     id 19
     name lradius
     direction 1 -4.48965e-011 1.51591e-026   
     length 3.4869   
     axis -180 -30 -90   XYZ
    dof rx
    limits (-10.0 170.0)
  end
  begin
     id 20
     name lwrist
     direction 1 -4.48957e-011 2.70032e-026   
     length 1.74345   
     axis -1.81515e-014 90 90   XYZ
    dof ry
    limits (-180.0 0.0)
 end
  begin
     id 21 
     name lhand
     direction 1 -4.48951e-011 5.40064e-026   
     length 0.76799   
     axis -3.44607e-014 90 90   XYZ
    dof rx rz
    limits (-90.0 90.0)
           (-45.0 45.0)
  end
  begin
     id 22 
     name lfingers
     direction 1 -4.48971e-011 1.08013e-025   
     length 0.619174   
     axis -6.89214e-014 90 90   XYZ
    dof rx
    limits (0.0 90.0)
  end
  begin
     id 23
     name lthumb
     direction 0.707107 -6.34931e-011 0.707107   
     length 0.889013   
     axis -90 45 2.85299e-015   XYZ
    dof rx rz
    limits (-45.0 45.0)
           (-45.0 45.0)
  end
  begin
     id 24 
     name rclavicle
     direction -0.961409 0.252588 0.109054   
     length 4.04305  
     axis 0 0 0   XYZ 
    dof ry rz
    limits (-10.0 20.0)
           (-20.0 0.0)
  end
  begin
     id 25 
     name rhumerus
     direction -1 -4.4897e-011 1.33872e-017  
     length 4.70164   
     axis -180 30 90   XYZ
    dof rx ry rz
    limits (-90.0 60.0)
           (-90.0 90.0)
           (-90.0 90.0)
  end
  begin
     id 26 
     name rradius
     direction -1 -4.48954e-011 1.83844e-026   
     length 3.49911   
     axis -180 30 90   XYZ
    dof rx
    limits (-10.0 170.0)
  end
  begin
     id 27 
     name rwrist
     direction -1 -4.49008e-011 2.70032e-026   
     length 1.74955   
     axis -1.81515e-014 -90 -90   XYZ
    dof ry
    limits (-180.0 0.0)
  end
  begin
     id 28
     name rhand
     direction -1 -4.48916e-011 5.40064e-026   
     length 0.739335   
     axis -3.44607e-014 -90 -90   XYZ
    dof rx rz
    limits (-90.0 90.0)
           (-45.0 45.0)
  end
  begin
     id 29
     name rfingers
     direction -1 -4.48987e-011 1.08013e-025   
     length 0.596071   
     axis -6.89214e-014 -90 -90   XYZ
    dof rx
    limits (0.0 90.0)
  end
  begin
     id 30
     name rthumb
     direction -0.707107 -6.34935e-011 0.707107   
     length 0.855843   
     axis -90 -45 -2.85299e-015   XYZ
    dof rx rz
    limits (-45.0 45.0)
           (-45.0 45.0)
  end
:hierarchy
  begin
    root lhipjoint rhipjoint lowerback
    lhipjoint lfemur
    lfemur ltibia
    ltibia lfoot
    lfoot ltoes
    rhipjoint rfemur
    rfemur rtibia
    rtibia rfoot
    rfoot rtoes
    lowerback upperback
    upperback thorax
    thorax lowerneck lclavicle rclavicle
    lowerneck upperneck
    upperneck head
    lclavicle lhumerus
    lhumerus lradius
    lradius lwrist
    lwrist lhand lthumb
    lhand lfingers
    rclavicle rhumerus
    rhumerus rradius
    rradius rwrist
    rwrist rhand rthumb
    rhand rfingers
  end

#!OML:ASF I:\salsa\salsa 7_09\Patient 1\Session 1\dancermale.ASF
:FULLY-SPECIFIED
:DEGREES
793
root -1.92532 17.0173 -4.46999 190.002 41.7603 543.71
lowerback -5.63887 -0.0253345 3.08866
upperback -2.5934 -0.0932816 0.96821
thorax 0.48595 -0.0183589 -0.743053
lowerneck -7.03721 -3.6785 0.359997
upperneck 21.5927 -3.40519 -4.64415
head 7.70089 -1.70945 -1.83843
rclavicle 2.03956e-014 -1.82882e-014
rhumerus -32.5287 31.4266 -101.395
rradius 93.1585
rwrist 49.4009
rhand -58.6918 44.9815
rfingers 7.12502
rthumb -30.9056 17.5621
lclavicle 2.03956e-014 -1.82882e-014
lhumerus -28.0061 -37.5721 87.4446
lradius 119.629
lwrist 51.2989
lhand -6.61122 50.2759
lfingers 7.12502
lthumb 19.2447 -280.656
rfemur 1.5093 1.43506 22.2573
rtibia 13.9588
rfoot -17.8416 -18.2565
rtoes -7.21418
lfemur -37.8888 22.2814 -27.9396
ltibia 32.3514
lfoot -12.7632 22.1953
ltoes 5.61855
794
root -1.74146 17.007 -4.66565 190.724 39.9418 543.611
lowerback -7.0146 0.26313 3.07542
upperback -2.66018 0.257614 0.958246
thorax 1.1931 0.174491 -0.71863
lowerneck -7.41331 -3.62307 0.567775
upperneck 22.2316 -3.26592 -4.71755
head 7.97897 -1.61575 -1.90378
rclavicle 8.4289e-014 -1.88845e-015
rhumerus -32.9229 33.2056 -102.114
rradius 93.972
rwrist 51.1318
rhand -57.1729 43.1594
rfingers 7.12502
rthumb -29.4565 15.4751
lclavicle 8.4289e-014 -1.88845e-015
lhumerus -26.6371 -37.7953 84.8366
lradius 120.301
lwrist 48.8689
lhand -3.64823 50.3687
lfingers 7.12502
lthumb 22.0917 -280.873
rfemur 2.09504 0.831069 22.5912
rtibia 13.3692
rfoot -17.5526 -19.0783
rtoes -7.26562
lfemur -38.5489 23.238 -29.3212
ltibia 28.9641
lfoot -13.5327 23.1105
ltoes 11.693
795
root -1.5453 16.9895 -4.86961 190.904 38.2383 543.941
lowerback -7.59581 0.571867 3.27954
upperback -2.57138 0.633296 1.03077
thorax 1.62058 0.371269 -0.72155
lowerneck -7.80283 -3.58834 0.533668
upperneck 22.932 -3.16665 -4.53452
head 8.29311 -1.53415 -1.84786
rclavicle -1.20925e-014 -6.85807e-015
rhumerus -33.6831 34.1008 -102.871
rradius 95.0937
rwrist 52.3543
rhand -55.3217 41.4213
rfingers 7.12502
rthumb -27.6878 13.4394
lclavicle -1.20925e-014 -6.85807e-015
lhumerus -25.0666 -37.7018 82.1242
lradius 120.6
lwrist 45.0691
lhand -2.74793 50.363
lfingers 7.12502
lthumb 22.9559 -280.984
rfemur 3.37868 0.464728 23.3674
rtibia 13.2496
rfoot -17.4004 -19.7593
rtoes -7.73907
lfemur -38.0457 24.4326 -29.8353
ltibia 25.9945
lfoot -12.5758 23.994
ltoes 15.0415
796
root -1.38333 16.9472 -5.08657 190.747 36.7631 543.884
lowerback -7.56424 0.981501 3.58961
upperback -2.74934 1.17609 0.871296
thorax 1.44725 0.641268 -1.01322
lowerneck -8.1079 -3.4924 0.691559
upperneck 23.8563 -2.95253 -4.45557
head 8.66802 -1.37682 -1.8479
rclavicle 5.07538e-014 3.65267e-014
rhumerus -35.2236 33.8413 -103.924
rradius 96.7566
rwrist 54.6942
rhand -54.6266 39.3261
rfingers 7.12502
rthumb -27.023 11.2393
lclavicle 5.07538e-014 3.65267e-014
lhumerus -23.5521 -37.3246 79.6454
lradius 120.322
lwrist 40.5518
lhand -3.58421 50.2308
lfingers 7.12502
lthumb 22.1532 -281.018
rfemur 4.2046 -0.273927 23.4421
rtibia 14.076
rfoot -17.2844 -19.7055
rtoes -9.31968
lfemur -37.9792 25.0689 -30.4402
ltibia 25.0878
lfoot -10.4623 24.6441
ltoes 17.7739
797
root -1.22542 16.9073 -5.31611 190.406 35.333 543.288
lowerback -7.52416 1.41133 3.54464
upperback -3.12195 1.78738 0.545981
thorax 1.0755 0.943743 -1.27563
lowerneck -8.2647 -3.43078 0.914147
upperneck 24.8291 -2.75657 -4.44664
head 9.03407 -1.21637 -1.87944
rclavicle 6.11907e-014 -8.05078e-015
rhumerus -37.1461 32.5927 -105.047
rradius 98.6096
rwrist 57.4135
rhand -53.5887 37.1949
rfingers 7.12502
rthumb -26.0295 8.95801
lclavicle 6.11907e-014 -8.05078e-015
lhumerus -22.0724 -36.7647 77.5557
lradius 119.392
lwrist 36.5923
lhand -4.16496 50.2419
lfingers 7.12502
lthumb 21.5955 -280.942
rfemur 4.55161 -1.07617 22.9237
rtibia 15.5901
rfoot -17.2371 -19.4909
rtoes -10.8502
lfemur -37.8605 25.0623 -31.2355
ltibia 24.8908
lfoot -7.07901 24.0778
ltoes 21.065
798
root -1.05588 16.8715 -5.55562 189.74 33.9928 542.398
lowerback -7.5567 1.74621 3.0028
upperback -3.3583 2.2916 0.281288
thorax 0.86523 1.19845 -1.205
lowerneck -8.30372 -3.25836 1.06641
upperneck 25.5835 -2.39184 -4.46969
head 9.3135 -0.986085 -1.88577
rclavicle -4.11344e-014 -6.90777e-015
rhumerus -38.8682 31.2755 -105.929
rradius 100.163
rwrist 59.9364
rhand -52.9368 34.8069
rfingers 7.12502
rthumb -25.4052 6.47966
lclavicle -4.11344e-014 -6.90777e-015
lhumerus -20.4853 -35.8741 75.6407
lradius 118.137
lwrist 34.5711
lhand -5.41907 50.4944
lfingers 7.12502
lthumb 20.3907 -280.556
rfemur 4.82614 -1.82759 22.1087
rtibia 17.6924
rfoot -17.3078 -19.2578
rtoes -11.911
lfemur -37.2808 24.7788 -31.8376
ltibia 26.1984
lfoot -8.45238 23.3398
ltoes 23.7091
799
root -0.890668 16.8343 -5.80354 189.008 32.6328 541.434
lowerback -7.67504 1.96337 2.37928
upperback -3.50795 2.63668 -0.00907628
thorax 0.77882 1.37673 -1.12456
lowerneck -8.02945 -2.90586 1.53288
upperneck 25.8084 -1.8116 -4.73401
head 9.34789 -0.659875 -1.99267
rclavicle 7.46902e-014 1.46107e-014
rhumerus -40.1421 29.6171 -106.467
rradius 101.296
rwrist 62.3041
rhand -52.36 35.3299
rfingers 7.12502
rthumb -24.8525 6.92522
lclavicle 7.46902e-014 1.46107e-014
lhumerus -18.816 -34.3611 74.0362
lradius 116.788
lwrist 34.3223
lhand -7.01879 51.3916
lfingers 7.12502
lthumb 18.8527 -279.502
rfemur 4.83041 -2.73104 21.1261
rtibia 20.3864
rfoot -17.2539 -18.8232
rtoes -12.2738
lfemur -36.6498 24.2572 -32.3813
ltibia 27.9435
lfoot -10.8012 22.2568
ltoes 21.2667
800
root -0.725206 16.8009 -6.056 188.076 31.2041 540.231
lowerback -7.82124 2.06677 1.50463
upperback -3.54954 2.84302 -0.376737
thorax 0.803428 1.48774 -0.991033
lowerneck -6.99017 -2.39243 3.81714
upperneck 24.8041 -0.9008 -7.08382
head 8.78197 -0.235051 -3.06726
rclavicle -6.29099e-014 -1.38901e-014
rhumerus -41.1593 28.0635 -107.009
rradius 102.124
rwrist 64.5563
rhand -52.4749 35.057
rfingers 7.12502
rthumb -24.9626 6.66752
lclavicle -6.29099e-014 -1.38901e-014
lhumerus -17.1855 -32.7917 72.533
lradius 115.286
lwrist 34.9981
lhand -8.42697 52.2836
lfingers 7.12502
lthumb 17.498 -278.484
rfemur 4.73533 -3.61015 19.9375
rtibia 23.4811
rfoot -16.7088 -18.554
rtoes -11.674
lfemur -35.9151 23.4626 -33.0355
ltibia 29.7252
lfoot -12.7334 21.2382
ltoes 20.1449
801
root -0.557307 16.7835 -6.30895 187.054 29.5896 538.979
lowerback -8.02172 2.05959 0.507733
upperback -3.44588 2.90901 -0.746885
thorax 0.995189 1.52821 -0.797426
lowerneck -7.04408 -1.91608 4.27965
upperneck 25.3086 -0.161058 -7.13678
head 9.00994 0.189191 -3.10539
rclavicle 1.11918e-014 1.10263e-015
rhumerus -41.7289 26.3684 -107.312
rradius 102.7
rwrist 66.845
rhand -52.7142 34.8363
rfingers 7.12502
rthumb -25.1919 6.47892
lclavicle 1.11918e-014 1.10263e-015
lhumerus -15.404 -31.4649 71.4213
lradius 113.315
lwrist 35.6647
lhand -9.45528 52.5266
lfingers 7.12502
lthumb 16.5081 -278.156
rfemur 4.54671 -4.44713 18.8488
rtibia 26.9196
rfoot -15.4471 -18.6708
rtoes -9.64472
lfemur -34.9993 22.4134 -33.6484
ltibia 31.3612
lfoot -14.1036 20.4882
ltoes 19.761
802
root -0.417141 16.7819 -6.55807 186.044 28.0763 537.89
lowerback -7.8583 2.13905 0.0386638
upperback -3.37577 3.06079 -1.30664
thorax 0.987111 1.60578 -1.10199
lowerneck -7.92234 -1.41484 3.86088
upperneck 26.9837 0.495022 -5.68769
head 9.82335 0.663207 -2.49468
rclavicle 3.40077e-014 2.5345e-015
rhumerus -42.2224 24.3276 -107.688
rradius 103.177
rwrist 69.1353
rhand -53.0083 34.8335
rfingers 7.12502
rthumb -25.4737 6.51602
lclavicle 3.40077e-014 2.5345e-015
lhumerus -13.9683 -30.4742 70.808
lradius 111.153
lwrist 35.6464
lhand -10.4015 52.2667
lfingers 7.12502
lthumb 15.597 -278.342
rfemur 3.8011 -5.42242 17.7862
rtibia 31.3209
rfoot -13.4069 -18.6595
rtoes -5.45527
lfemur -34.0503 21.3442 -34.1114
ltibia 33.0533
lfoot -15.483 20.0071
ltoes 19.0105
803
root -0.281178 16.7851 -6.80252 185.046 26.486 537.007
lowerback -7.53763 2.1252 -0.354368
upperback -3.28833 3.07815 -1.75389
thorax 0.905112 1.61633 -1.35181
lowerneck -8.34131 -0.783338 3.98113
upperneck 28.0525 1.36896 -4.90207
head 10.3456 1.224 -2.15043
rclavicle -3.33772e-014 -1.35174e-014
rhumerus -42.8961 22.768 -107.998
rradius 103.531
rwrist 70.9881
rhand -53.3823 34.6221
rfingers 7.12502
rthumb -25.8319 6.35622
lclavicle -3.33772e-014 -1.35174e-014
lhumerus -13.1486 -29.5386 70.7603
lradius 109.146
lwrist 35.1175
lhand -11.7125 52.3747
lfingers 7.12502
lthumb 14.3341 -278.14
rfemur 2.51606 -7.05625 16.693
rtibia 36.7788
rfoot -10.5632 -18.2904
rtoes 1.66456
lfemur -32.703 20.3913 -34.333
ltibia 34.3014
lfoot -16.6363 19.3334
ltoes 17.4967
804
root -0.138573 16.7843 -7.03856 184.211 24.7979 536.5
lowerback -7.2525 1.97102 -0.670076
upperback -3.13995 2.89218 -1.96083
thorax 0.891878 1.52331 -1.41109
lowerneck -8.28613 0.0123869 4.57717
upperneck 28.4475 2.54942 -4.88749
head 10.5533 1.87733 -2.11265
rclavicle -2.55935e-015 -2.11706e-014
rhumerus -43.6062 21.6542 -108.032
rradius 103.841
rwrist 72.4814
rhand -53.4829 34.9251
rfingers 7.12502
rthumb -25.9283 6.67337
lclavicle -2.55935e-015 -2.11706e-014
lhumerus -12.6957 -28.586 71.0421
lradius 107.259
lwrist 34.5861
lhand -12.8524 52.91
lfingers 7.12502
lthumb 13.2354 -277.53
rfemur 0.605354 -9.29723 15.7582
rtibia 43.0838
rfoot -7.11305 -17.708
rtoes 11.8212
lfemur -30.9855 19.6928 -34.1735
ltibia 34.8848
lfoot -17.4011 18.3819
ltoes 16.0888
805
root -0.00599238 16.7761 -7.26111 183.585 23.1244 536.211
lowerback -7.05039 1.76293 -0.776295
upperback -2.94199 2.61786 -2.12007
thorax 0.981082 1.38338 -1.54
lowerneck -8.25764 0.898295 5.41085
upperneck 28.6425 3.87523 -5.19841
head 10.7211 2.57152 -2.21226
rclavicle -6.24557e-014 7.55382e-015
rhumerus -44.2131 20.6813 -107.919
rradius 104.189
rwrist 73.7371
rhand -53.2537 35.9152
rfingers 7.12502
rthumb -25.7087 7.63155
lclavicle -6.24557e-014 7.55382e-015
lhumerus -12.3517 -28.1333 71.3276
lradius 105.738
lwrist 35.7973
lhand -16.4965 53.4682
lfingers 7.12502
lthumb 9.72118 -276.776
rfemur -2.01298 -11.7114 14.99
rtibia 49.976
rfoot -3.10719 -17.0783
rtoes 23.2397
lfemur -29.1884 19.0983 -33.9182
ltibia 34.9544
lfoot -18.0395 17.4379
ltoes 15.1954
